<?xml version="1.0"?>
<svg xmlns:rdf="http://www.w3.org/1999/02/22-rdf-syntax-ns#" xmlns="http://www.w3.org/2000/svg" xmlns:cc="http://creativecommons.org/ns#" xmlns:xlink="http://www.w3.org/1999/xlink" xmlns:dc="http://purl.org/dc/elements/1.1/" xmlns:svg="http://www.w3.org/2000/svg" id="svg2" viewBox="0 0 64 64" version="1.1">
  <defs id="defs4">
    <filter id="filter3830" y="-.057858" width="1.2311" height="1.1157" x="-.11556">
      <feGaussianBlur id="feGaussianBlur3832" stdDeviation="0.86590833"/>
    </filter>
    <linearGradient id="linearGradient3985" y2="1004.1" gradientUnits="userSpaceOnUse" x2="-44.414" y1="1026" x1="-49.006">
      <stop id="stop3618-4" stop-color="#00195d" offset="0"/>
      <stop id="stop3620-0" stop-color="#00195d" stop-opacity="0" offset="1"/>
    </linearGradient>
    <linearGradient id="linearGradient3987" y2="1078.1" gradientUnits="userSpaceOnUse" x2="-27.639" y1="981.67" x1="-53.706">
      <stop id="stop3673-8" stop-color="#003380" offset="0"/>
      <stop id="stop3675-8" stop-color="#003380" stop-opacity="0" offset="1"/>
    </linearGradient>
    <linearGradient id="linearGradient3989" y2="1015" gradientUnits="userSpaceOnUse" x2="-44.51" y1="995.68" x1="-48.639">
      <stop id="stop3633-5" stop-color="#fff" offset="0"/>
      <stop id="stop3635-5" stop-color="#fff" stop-opacity="0" offset="1"/>
    </linearGradient>
    <filter id="filter4034">
      <feGaussianBlur id="feGaussianBlur4036" stdDeviation="0.7523968"/>
    </filter>
  </defs>
  <g id="layer1" transform="translate(0 -988.36)">
    <g id="g4018" filter="url(#filter4034)" stroke="#000" stroke-width="1.7" fill="none">
      <path id="path4020" d="m36.226 1006.6s6.2386 4.4913 6.2386 13.928c0 9.4368-6.2386 13.625-6.2386 13.625"/>
      <path id="path4022" d="m43.783 1000.5s6.8068 6.4701 6.8068 20.065-6.8068 19.629-6.8068 19.629"/>
      <path id="path4024" d="m50.505 994.35s8.6388 8.4794 8.6388 26.296-8.6388 25.725-8.6388 25.725"/>
    </g>
    <g id="g3884" transform="translate(-12)">
      <path id="path3793" filter="url(#filter3830)" d="m-45.101 1027.7c-0.26968-0.022-0.65124 0.133-1.1875 0.5-2.145 1.4681-9.9375 9.9688-9.9375 9.9688-0.06797 0-0.12153 0.024-0.1875 0.031h-6.0066v14.938h6.1941s7.6541 8.5319 9.9375 10 1.8125-0.8131 1.8125-1.8125v-31.344c0-0.7496 0.18406-2.2145-0.625-2.2813v0.0002z" transform="matrix(1.6479 0 0 1.6479 118.04 -702.69)"/>
      <g id="g3705" transform="matrix(1.662 0 0 1.662 103.97 -660.54)">
        <path id="path3624" d="m-36.087 993.64c-0.26968-0.0222-0.65124 0.13298-1.1875 0.5-2.145 1.4681-9.9375 9.9688-9.9375 9.9688-0.06797 0-0.12153 0.024-0.1875 0.031h-6.0066v14.938h6.1941s7.6541 8.5319 9.9375 10 1.8125-0.8131 1.8125-1.8125v-31.344c0-0.74962 0.18406-2.2145-0.625-2.2812v0.0002z" fill="#00aad4"/>
        <path id="path2842" d="m-36.087 993.64c-0.26968-0.0222-0.65124 0.13298-1.1875 0.5-2.145 1.4681-9.9375 9.9688-9.9375 9.9688-0.06797 0-0.12153 0.024-0.1875 0.031h-6.0066v14.938h6.1941s7.6541 8.5319 9.9375 10 1.8125-0.8131 1.8125-1.8125v-31.344c0-0.74962 0.18406-2.2145-0.625-2.2812v0.0002z" stroke="url(#linearGradient3987)" stroke-width=".6" fill="url(#linearGradient3985)"/>
        <path id="rect2830" d="m-36.824 995.37c-0.24164-0.0198-0.58351 0.11916-1.064 0.448-1.9219 1.3154-9.1086 9.2389-9.1086 9.2389-0.0609 0-0.10889 0.022-0.168 0.028h-5.404v9.9401c3.0781-0.4691 6.3508-1.1921 9.7159-2.1561 2.2372-0.641 4.4581-1.4609 6.4863-2.2303l0.10233-13.225c0-0.67166 0.16491-1.9842-0.56-2.044v-0.00013z" fill="url(#linearGradient3989)"/>
      </g>
    </g>
    <g id="g4013" stroke="#333" stroke-width="1.7" fill="none">
      <path id="path4005" d="m36.226 1006.6s6.2386 4.4913 6.2386 13.928c0 9.4368-6.2386 13.625-6.2386 13.625"/>
      <path id="path4007" d="m43.783 1000.5s6.8068 6.4701 6.8068 20.065-6.8068 19.629-6.8068 19.629"/>
      <path id="path4009" d="m50.505 994.35s8.6388 8.4794 8.6388 26.296-8.6388 25.725-8.6388 25.725"/>
    </g>
  </g>
  <metadata>
    <rdf:RDF>
      <cc:Work>
        <dc:format>image/svg+xml</dc:format>
        <dc:type rdf:resource="http://purl.org/dc/dcmitype/StillImage"/>
        <cc:license rdf:resource="http://creativecommons.org/licenses/publicdomain/"/>
        <dc:publisher>
          <cc:Agent rdf:about="http://openclipart.org/">
            <dc:title>Openclipart</dc:title>
          </cc:Agent>
        </dc:publisher>
        <dc:title>unmute</dc:title>
        <dc:date>2011-02-14T18:21:12</dc:date>
        <dc:description>A simply speaker graphic.</dc:description>
        <dc:source>http://openclipart.org/detail/118303/unmute-by-keddec</dc:source>
        <dc:creator>
          <cc:Agent>
            <dc:title>Keddec</dc:title>
          </cc:Agent>
        </dc:creator>
        <dc:subject>
          <rdf:Bag>
            <rdf:li>clip art</rdf:li>
            <rdf:li>clipart</rdf:li>
            <rdf:li>sound mute speaker</rdf:li>
          </rdf:Bag>
        </dc:subject>
      </cc:Work>
      <cc:License rdf:about="http://creativecommons.org/licenses/publicdomain/">
        <cc:permits rdf:resource="http://creativecommons.org/ns#Reproduction"/>
        <cc:permits rdf:resource="http://creativecommons.org/ns#Distribution"/>
        <cc:permits rdf:resource="http://creativecommons.org/ns#DerivativeWorks"/>
      </cc:License>
    </rdf:RDF>
  </metadata>
</svg>
